<?xml version="1.0" encoding="utf-8"?>
<!-- Generator: Adobe Illustrator 16.0.0, SVG Export Plug-In . SVG Version: 6.00 Build 0)  -->
<!DOCTYPE svg PUBLIC "-//W3C//DTD SVG 1.1//EN" "http://www.w3.org/Graphics/SVG/1.1/DTD/svg11.dtd">
<svg version="1.1" id="Ebene_1" xmlns="http://www.w3.org/2000/svg" xmlns:xlink="http://www.w3.org/1999/xlink" x="0px" y="0px"
	 width="1000px" height="1000px" viewBox="0 0 1000 1000" enable-background="new 0 0 1000 1000" xml:space="preserve">
<g id="Diamand">
	<polyline fill="none" stroke="#B21C00" stroke-width="16" stroke-miterlimit="10" points="453.185,166.387 305.474,166.387 
		157.763,166.387 38.266,293.147 305.474,604.133 524.877,348.785 	"/>
	<path fill="none" stroke="#B21C00" stroke-width="16" stroke-miterlimit="10" d="M543.023,261.686"/>
</g>
<g id="Laptop">
	<g>
		<path fill="#00B269" d="M514.475,195.387h-361c-11.046,0-20,8.954-20,20v200.921c0.428-0.115,0.892-0.183,1.401-0.183
			c2.373,0,3.869,1.355,4.496,3.066c2.085,0.95,2.971,3.291,2.649,5.422c0.346-0.07,0.711-0.113,1.105-0.113
			c3.946,0,5.473,3.744,4.589,6.65c0.396-0.096,0.823-0.15,1.286-0.15c4.628,0,5.925,5.144,3.909,8.051
			c1.198,0.433,2.021,1.31,2.513,2.354c2.266,0.553,3.437,2.547,3.524,4.597c0.019,0,0.035-0.002,0.054-0.002
			c2.906,0,4.498,2.03,4.783,4.261c0.073-0.003,0.142-0.011,0.217-0.011c2.702,0,4.26,1.757,4.697,3.796
			c2.799,0.34,4.177,2.712,4.135,5.059c1.127,0.801,1.783,2.071,1.954,3.421c1.892,0.629,2.945,2.305,3.139,4.108
			c3.186,0.093,4.737,2.667,4.654,5.183c0.276,0.168,0.537,0.354,0.762,0.571h331.134c11.045,0,20-8.954,20-20v-237
			C534.475,204.341,525.52,195.387,514.475,195.387z"/>
	</g>
	<image overflow="visible" width="396" height="251" xlink:href="61C0951320C8F391.png"  transform="matrix(1 0 0 1 148.5 208.5)">
	</image>
	<g>
		<path fill="#00B269" d="M576.277,472.387H183.341c0.447,0.431,0.794,0.948,1.04,1.513c1.268,0.534,2.117,1.563,2.53,2.769
			c0.946,0.704,1.551,1.741,1.794,2.877c2.516,0.239,4.545,2.383,4.545,4.953c0,0.116-0.027,0.226-0.035,0.34
			c0.087,0.067,0.185,0.124,0.266,0.197c1.914,0.665,2.946,2.422,3.087,4.269c1.268,1.26,2.439,2.582,3.303,4.081h376.408
			c11,0,20-4.786,20-10.5S587.279,472.387,576.277,472.387z"/>
	</g>
	<g>
		<path fill="#FFFFFF" d="M367.139,477.887c0,1.959-4.5,3.5-10,3.5h-41.737c-5.5,0-10-1.541-10-3.5s4.5-3.5,10-3.5h41.737
			C362.639,474.387,367.139,475.928,367.139,477.887z"/>
	</g>
</g>
<line fill="none" stroke="#B21C00" stroke-width="16" stroke-miterlimit="10" x1="114.944" y1="382.387" x2="228.809" y2="514.908"/>
<polyline fill="none" stroke="#B21C00" stroke-width="16" stroke-miterlimit="10" points="453,166 525.988,166 562.574,131 607,131 
	"/>
<line fill="none" stroke="#00B269" stroke-width="14" stroke-miterlimit="10" x1="506" y1="202" x2="627" y2="202"/>
<polyline fill="none" stroke="#00B269" stroke-width="14" stroke-miterlimit="10" points="642,235 603.805,235 570.557,201.939 "/>
<polyline fill="none" stroke="#00B269" stroke-width="14" stroke-miterlimit="10" points="526,390 587,390 612,390 656.021,434.5 
	"/>
<line fill="none" stroke="#00B269" stroke-width="14" stroke-miterlimit="10" x1="621.688" y1="333.981" x2="566.208" y2="390"/>
<g id="Punkt">
	<circle fill="#B21C00" cx="607.088" cy="131.043" r="13.912"/>
	<circle fill="#FFFFFF" cx="607.088" cy="131.043" r="3.479"/>
</g>
<g id="Punkt_2_">
	<circle fill="#00B269" cx="627.088" cy="202.043" r="13.912"/>
	<circle fill="#FFFFFF" cx="627.088" cy="202.043" r="3.479"/>
</g>
<g id="Punkt_6_">
	<circle fill="#00B269" cx="642.088" cy="235.043" r="13.912"/>
	<circle fill="#FFFFFF" cx="642.088" cy="235.043" r="3.479"/>
</g>
<g id="Punkt_4_">
	<circle fill="#00B269" cx="526.088" cy="352.043" r="13.912"/>
	<circle fill="#FFFFFF" cx="526.088" cy="352.043" r="3.479"/>
</g>
<g id="Punkt_5_">
	<circle fill="#00B269" cx="621.088" cy="334.043" r="13.912"/>
	<circle fill="#FFFFFF" cx="621.088" cy="334.043" r="3.479"/>
</g>
<g id="Punkt_7_">
	<circle fill="#00B269" cx="655.088" cy="434.043" r="13.912"/>
	<circle fill="#FFFFFF" cx="655.088" cy="434.043" r="3.479"/>
</g>
<g>
	<path fill="#B21C00" d="M395.285,557.4c-3.261-3.894-7.995-6.102-14.096-6.102c-12.414,0-21.566,10.099-21.566,23.984
		s9.152,23.982,21.04,23.982c6.627,0,11.991-2.943,15.358-7.992l13.676,10.203c-6.208,8.838-16.728,12.938-26.93,12.938
		c-23.25,0-40.186-15.253-40.186-39.133s16.937-39.133,40.186-39.133c8.309,0,18.83,2.84,25.141,10.938L395.285,557.4z"/>
	<path fill="#B21C00" d="M432.413,532.995v35.347h0.21c1.472-3.998,6.627-8.207,14.307-8.207c15.991,0,18.936,10.521,18.936,24.195
		v28.193h-15.778v-25.037c0-5.892-0.106-13.465-8.205-13.465c-8.207,0-9.468,6.416-9.468,13.044v25.458h-15.779v-79.528H432.413z"/>
	<path fill="#B21C00" d="M477.011,561.396h15.779v8.205h0.211c3.365-6.205,7.784-9.468,14.727-9.468
		c1.789,0,3.787,0.106,5.261,0.527v14.412c-2.208-0.632-4.418-1.054-6.732-1.054c-11.993,0-13.465,6.943-13.465,17.147v21.354
		h-15.779L477.011,561.396L477.011,561.396z"/>
	<path fill="#B21C00" d="M548.75,576.441c-2.312-2.842-5.365-4.313-9.152-4.313c-2.629,0-5.784,1.157-5.784,4.207
		c0,7.575,26.613,1.157,26.613,20.619c0,13.044-12.624,16.832-23.562,16.832c-7.153,0-15.043-1.789-20.092-6.943l9.57-10.625
		c2.946,3.577,6.417,5.575,11.151,5.575c3.576,0,7.153-0.947,7.153-3.682c0-8.205-26.615-1.263-26.615-20.724
		c0-11.993,10.729-17.254,21.46-17.254c6.732,0,14.202,1.685,18.936,6.733L548.75,576.441z"/>
	<path fill="#00B269" d="M562.737,538.044h17.883l11.887,47.759h0.212l15.569-47.759h15.253l15.464,49.021h0.21l12.52-49.021h16.62
		l-21.774,74.479h-14.622l-16.411-51.548h-0.21l-16.411,51.548H584.83L562.737,538.044z"/>
	<path fill="#00B269" d="M673.711,561.396h15.148v6.944h0.21c2.104-3.998,7.259-8.207,14.938-8.207
		c15.99,0,18.938,10.521,18.938,24.195v28.192h-15.781v-25.036c0-5.892-0.104-13.466-8.205-13.466
		c-8.204,0-9.467,6.417-9.467,13.045v25.457h-15.779L673.711,561.396L673.711,561.396z"/>
	<path fill="#00B269" d="M787.736,612.523H773.22v-6.732h-0.21c-2.419,3.683-8.521,7.995-15.675,7.995
		c-15.148,0-25.142-10.941-25.142-26.405c0-14.201,8.836-27.246,23.354-27.246c6.521,0,12.623,1.789,16.2,6.733h0.209v-33.873
		h15.779L787.736,612.523L787.736,612.523z M760.597,574.021c-7.89,0-12.624,5.26-12.624,12.938s4.734,12.939,12.624,12.939
		c7.891,0,12.623-5.262,12.623-12.939C773.22,579.281,768.486,574.021,760.597,574.021z"/>
	<path fill="#00B269" d="M800.354,561.396h15.779v8.205h0.211c3.365-6.205,7.784-9.468,14.728-9.468c1.789,0,3.788,0.106,5.26,0.527
		v14.412c-2.208-0.632-4.418-1.054-6.732-1.054c-11.993,0-13.465,6.943-13.465,17.147v21.354h-15.778v-51.124H800.354z"/>
	<path fill="#00B269" d="M872.095,576.441c-2.313-2.842-5.366-4.313-9.151-4.313c-2.631,0-5.785,1.157-5.785,4.207
		c0,7.575,26.613,1.157,26.613,20.619c0,13.044-12.623,16.832-23.563,16.832c-7.153,0-15.043-1.789-20.092-6.943l9.571-10.625
		c2.945,3.577,6.416,5.575,11.15,5.575c3.576,0,7.153-0.947,7.153-3.682c0-8.205-26.615-1.263-26.615-20.724
		c0-11.993,10.729-17.254,21.461-17.254c6.732,0,14.201,1.685,18.935,6.733L872.095,576.441z"/>
</g>
<polygon fill="#FFFFFF" points="393.75,512.75 329,588.25 333.719,607 407.998,520.998 "/>
<line fill="none" stroke="#B21C00" stroke-width="16" stroke-miterlimit="10" x1="386.976" y1="508.339" x2="331.624" y2="572.76"/>
<g>
	<path fill="#00B269" d="M173.262,279.078h-7.295v-7.816h8.338l1.477-10.943h-7.295v-7.816h8.338l2.432-17.458h8.424l-2.432,17.458
		h8.599l2.432-17.458h8.425l-2.432,17.458h7.295v7.816h-8.338l-1.477,10.943h7.296v7.816h-8.338l-2.432,17.458h-8.425l2.432-17.458
		h-8.598l-2.432,17.458h-8.425L173.262,279.078z M192.804,260.318h-8.598l-1.477,10.943h8.598L192.804,260.318z"/>
	<path fill="#00B269" d="M239.176,307.392v-4.343h43.426v4.343H239.176z"/>
</g>
</svg>
